<svg width="1000" height="700" viewBox="0 0 1000 700" fill="none" xmlns="http://www.w3.org/2000/svg">
<g filter="url(#filter0_dddddd_1_26)">
<rect x="116" y="197" width="770" height="200" rx="20" fill="#151155"/>
<g filter="url(#filter1_dddddd_1_26)">
<path d="M154 299C154 332.3 175.75 351.95 239.2 351.95C263.35 351.95 286.75 348.65 307.75 343.85V297.95H265.75V316.25C256.3 317 246.25 317.45 236.2 317.45C200.65 317.45 194.5 312.05 194.5 299C194.5 285.95 200.65 280.7 236.2 280.7C259.75 280.7 282.4 284.6 300.55 287.75L307.75 254.3C286.75 249.5 263.35 246.2 239.2 246.2C175.75 246.2 154 265.85 154 299ZM318.279 350H355.779V306.5C369.579 303.35 381.729 301.4 392.079 301.4C402.429 301.4 409.479 304.4 409.479 313.25V350H446.979V306.2C446.979 280.85 432.429 270.2 404.379 270.2C386.379 270.2 368.529 274.7 353.079 280.4L351.279 272.45H318.279V350ZM494.207 237.5H456.707V350H494.207V237.5ZM503.219 311C503.219 339.35 526.169 352.1 572.669 352.1C619.169 352.1 642.119 339.35 642.119 311C642.119 282.65 619.169 269.9 572.669 269.9C526.169 269.9 503.219 282.65 503.219 311ZM540.719 311C540.719 303.95 545.669 301.4 572.669 301.4C599.669 301.4 604.619 303.95 604.619 311C604.619 318.05 599.669 320.6 572.669 320.6C545.669 320.6 540.719 318.05 540.719 311ZM718.921 272.45L696.721 317.75L676.771 272.45H637.621L673.321 350H717.121L742.021 301.4L766.621 350H810.421L849.871 272.45H810.271L789.421 318.35L766.321 272.45H718.921Z" fill="url(#paint0_linear_1_26)"/>
</g>
<rect x="251" y="432" width="500" height="80" rx="40" fill="white"/>
<path d="M315.683 487L320.473 469.746H320.804L325.611 487H331.81L339.02 461.541H332.937L328.495 479.376H328.263L323.672 461.541H317.638L313.064 479.475H312.832L308.34 461.541H302.257L309.467 487H315.683ZM353.211 461.21C346.83 461.21 342.951 464.492 342.52 468.801H348.305C348.752 466.978 350.377 465.768 353.045 465.768C356.045 465.768 357.653 467.227 357.653 469.729L357.669 471.785C356.559 471.834 352.929 472 351.156 472.116C346.432 472.431 341.675 474.105 341.675 479.856C341.675 484.862 345.355 487.514 350.211 487.514C354.205 487.514 356.592 485.624 357.686 483.503H357.885V487H363.603V469.978C363.603 463.199 358.034 461.21 353.211 461.21ZM351.736 483.122C349.233 483.122 347.443 481.978 347.443 479.773C347.443 477.552 349.233 476.359 352.084 476.144C353.277 476.028 356.592 475.812 357.669 475.762L357.686 477.867C357.686 480.718 355.366 483.122 351.736 483.122ZM392.381 487L381.905 472.514L391.784 461.541H384.823L375.64 471.785H375.226V453.055H369.259V487H375.226V478.431L377.414 476.094L385.253 487H392.381ZM416.865 474.072C416.865 465.122 411.478 461.21 405.229 461.21C397.953 461.21 393.196 466.564 393.196 474.42C393.196 482.392 397.887 487.497 405.561 487.497C411.478 487.497 415.539 484.597 416.616 480.188H410.782C410.003 481.713 408.229 482.856 405.627 482.856C401.749 482.856 399.18 480.287 399.113 475.912H416.865V474.072ZM399.13 471.867C399.312 468.619 401.732 465.867 405.329 465.867C408.776 465.867 411.113 468.403 411.13 471.867H399.13ZM441.501 451.464L430.562 492.105H435.783L446.722 451.464H441.501ZM470.973 487.448C475.349 487.448 477.305 484.845 478.266 482.989H478.614V487H484.465V453.055H478.498V465.735H478.266C477.354 463.912 475.481 461.21 470.99 461.21C465.089 461.21 460.465 465.818 460.465 474.304C460.465 482.674 464.973 487.448 470.973 487.448ZM472.614 482.558C468.653 482.558 466.548 479.061 466.548 474.271C466.548 469.514 468.603 466.116 472.614 466.116C476.492 466.116 478.647 469.315 478.647 474.271C478.647 479.227 476.459 482.558 472.614 482.558ZM513.099 474.072C513.099 465.122 507.712 461.21 501.464 461.21C494.188 461.21 489.431 466.564 489.431 474.42C489.431 482.392 494.121 487.497 501.795 487.497C507.712 487.497 511.773 484.597 512.851 480.188H507.016C506.237 481.713 504.464 482.856 501.862 482.856C497.983 482.856 495.414 480.287 495.348 475.912H513.099V474.072ZM495.364 471.867C495.547 468.619 497.967 465.867 501.563 465.867C505.011 465.867 507.348 468.403 507.364 471.867H495.364ZM533.385 461.541L527.484 480.47H527.219L521.335 461.541H514.987L524.053 487H530.633L539.733 461.541H533.385ZM563.47 451.464L552.53 492.105H557.751L568.691 451.464H563.47ZM603.55 468.801C603.119 464.177 599.373 461.21 593.306 461.21C587.074 461.21 583.014 464.293 583.03 469C583.014 472.646 585.467 475.116 590.174 476.094L594.284 476.956C596.82 477.503 597.964 478.448 597.98 479.923C597.964 481.812 596.091 482.989 593.207 482.989C590.422 482.989 588.732 481.912 588.351 479.757H582.301C582.898 484.613 586.726 487.497 593.224 487.497C599.87 487.497 604.047 484.182 604.063 479.392C604.047 475.762 601.71 473.525 596.92 472.497L592.594 471.569C590.008 470.972 588.964 469.994 588.964 468.652C588.964 466.928 590.837 465.652 593.389 465.652C595.925 465.652 597.516 466.895 597.881 468.801H603.55ZM608.65 453.055V487H614.616V453.055H608.65ZM642.943 474.072C642.943 465.122 637.556 461.21 631.308 461.21C624.031 461.21 619.274 466.564 619.274 474.42C619.274 482.392 623.965 487.497 631.639 487.497C637.556 487.497 641.617 484.597 642.694 480.188H636.86C636.081 481.713 634.308 482.856 631.705 482.856C627.827 482.856 625.258 480.287 625.192 475.912H642.943V474.072ZM625.208 471.867C625.39 468.619 627.81 465.867 631.407 465.867C634.855 465.867 637.192 468.403 637.208 471.867H625.208ZM670.177 474.072C670.177 465.122 664.791 461.21 658.542 461.21C651.266 461.21 646.509 466.564 646.509 474.42C646.509 482.392 651.199 487.497 658.873 487.497C664.791 487.497 668.851 484.597 669.929 480.188H664.094C663.315 481.713 661.542 482.856 658.94 482.856C655.061 482.856 652.492 480.287 652.426 475.912H670.177V474.072ZM652.443 471.867C652.625 468.619 655.045 465.867 658.641 465.867C662.089 465.867 664.426 468.403 664.443 471.867H652.443ZM680.804 496.547V482.989H681.053C681.997 484.845 683.97 487.448 688.362 487.448C694.345 487.448 698.837 482.674 698.837 474.304C698.837 465.818 694.229 461.21 688.345 461.21C683.837 461.21 681.964 463.912 681.053 465.735H680.688V461.541H674.837V496.547H680.804ZM680.688 474.271C680.688 469.315 682.809 466.116 686.705 466.116C690.716 466.116 692.771 469.514 692.771 474.271C692.771 479.061 690.682 482.558 686.705 482.558C682.843 482.558 680.688 479.227 680.688 474.271Z" fill="black"/>
</g>
<defs>
<filter id="filter0_dddddd_1_26" x="36" y="160" width="930" height="475" filterUnits="userSpaceOnUse" color-interpolation-filters="sRGB">
<feFlood flood-opacity="0" result="BackgroundImageFix"/>
<feColorMatrix in="SourceAlpha" type="matrix" values="0 0 0 0 0 0 0 0 0 0 0 0 0 0 0 0 0 0 127 0" result="hardAlpha"/>
<feOffset dy="1.18992"/>
<feGaussianBlur stdDeviation="1.1069"/>
<feColorMatrix type="matrix" values="0 0 0 0 0 0 0 0 0 0 0 0 0 0 0 0 0 0 0.0168687 0"/>
<feBlend mode="normal" in2="BackgroundImageFix" result="effect1_dropShadow_1_26"/>
<feColorMatrix in="SourceAlpha" type="matrix" values="0 0 0 0 0 0 0 0 0 0 0 0 0 0 0 0 0 0 127 0" result="hardAlpha"/>
<feOffset dy="2.85954"/>
<feGaussianBlur stdDeviation="2.66004"/>
<feColorMatrix type="matrix" values="0 0 0 0 0 0 0 0 0 0 0 0 0 0 0 0 0 0 0.0242336 0"/>
<feBlend mode="normal" in2="effect1_dropShadow_1_26" result="effect2_dropShadow_1_26"/>
<feColorMatrix in="SourceAlpha" type="matrix" values="0 0 0 0 0 0 0 0 0 0 0 0 0 0 0 0 0 0 127 0" result="hardAlpha"/>
<feOffset dy="5.38427"/>
<feGaussianBlur stdDeviation="5.00862"/>
<feColorMatrix type="matrix" values="0 0 0 0 0 0 0 0 0 0 0 0 0 0 0 0 0 0 0.03 0"/>
<feBlend mode="normal" in2="effect2_dropShadow_1_26" result="effect3_dropShadow_1_26"/>
<feColorMatrix in="SourceAlpha" type="matrix" values="0 0 0 0 0 0 0 0 0 0 0 0 0 0 0 0 0 0 127 0" result="hardAlpha"/>
<feOffset dy="9.60461"/>
<feGaussianBlur stdDeviation="8.93452"/>
<feColorMatrix type="matrix" values="0 0 0 0 0 0 0 0 0 0 0 0 0 0 0 0 0 0 0.0357664 0"/>
<feBlend mode="normal" in2="effect3_dropShadow_1_26" result="effect4_dropShadow_1_26"/>
<feColorMatrix in="SourceAlpha" type="matrix" values="0 0 0 0 0 0 0 0 0 0 0 0 0 0 0 0 0 0 127 0" result="hardAlpha"/>
<feOffset dy="17.9644"/>
<feGaussianBlur stdDeviation="16.711"/>
<feColorMatrix type="matrix" values="0 0 0 0 0 0 0 0 0 0 0 0 0 0 0 0 0 0 0.0431313 0"/>
<feBlend mode="normal" in2="effect4_dropShadow_1_26" result="effect5_dropShadow_1_26"/>
<feColorMatrix in="SourceAlpha" type="matrix" values="0 0 0 0 0 0 0 0 0 0 0 0 0 0 0 0 0 0 127 0" result="hardAlpha"/>
<feOffset dy="43"/>
<feGaussianBlur stdDeviation="40"/>
<feColorMatrix type="matrix" values="0 0 0 0 0 0 0 0 0 0 0 0 0 0 0 0 0 0 0.06 0"/>
<feBlend mode="normal" in2="effect5_dropShadow_1_26" result="effect6_dropShadow_1_26"/>
<feBlend mode="normal" in="SourceGraphic" in2="effect6_dropShadow_1_26" result="shape"/>
</filter>
<filter id="filter1_dddddd_1_26" x="74" y="126.5" width="855.871" height="274.6" filterUnits="userSpaceOnUse" color-interpolation-filters="sRGB">
<feFlood flood-opacity="0" result="BackgroundImageFix"/>
<feColorMatrix in="SourceAlpha" type="matrix" values="0 0 0 0 0 0 0 0 0 0 0 0 0 0 0 0 0 0 127 0" result="hardAlpha"/>
<feOffset dy="-0.85785"/>
<feGaussianBlur stdDeviation="1.1069"/>
<feColorMatrix type="matrix" values="0 0 0 0 0.94902 0 0 0 0 0.337255 0 0 0 0 0.694118 0 0 0 0.0253031 0"/>
<feBlend mode="normal" in2="BackgroundImageFix" result="effect1_dropShadow_1_26"/>
<feColorMatrix in="SourceAlpha" type="matrix" values="0 0 0 0 0 0 0 0 0 0 0 0 0 0 0 0 0 0 127 0" result="hardAlpha"/>
<feOffset dy="-2.06153"/>
<feGaussianBlur stdDeviation="2.66004"/>
<feColorMatrix type="matrix" values="0 0 0 0 0.94902 0 0 0 0 0.337255 0 0 0 0 0.694118 0 0 0 0.0363503 0"/>
<feBlend mode="normal" in2="effect1_dropShadow_1_26" result="effect2_dropShadow_1_26"/>
<feColorMatrix in="SourceAlpha" type="matrix" values="0 0 0 0 0 0 0 0 0 0 0 0 0 0 0 0 0 0 127 0" result="hardAlpha"/>
<feOffset dy="-3.88168"/>
<feGaussianBlur stdDeviation="5.00862"/>
<feColorMatrix type="matrix" values="0 0 0 0 0.94902 0 0 0 0 0.337255 0 0 0 0 0.694118 0 0 0 0.045 0"/>
<feBlend mode="normal" in2="effect2_dropShadow_1_26" result="effect3_dropShadow_1_26"/>
<feColorMatrix in="SourceAlpha" type="matrix" values="0 0 0 0 0 0 0 0 0 0 0 0 0 0 0 0 0 0 127 0" result="hardAlpha"/>
<feOffset dy="-6.92426"/>
<feGaussianBlur stdDeviation="8.93452"/>
<feColorMatrix type="matrix" values="0 0 0 0 0.94902 0 0 0 0 0.337255 0 0 0 0 0.694118 0 0 0 0.0536497 0"/>
<feBlend mode="normal" in2="effect3_dropShadow_1_26" result="effect4_dropShadow_1_26"/>
<feColorMatrix in="SourceAlpha" type="matrix" values="0 0 0 0 0 0 0 0 0 0 0 0 0 0 0 0 0 0 127 0" result="hardAlpha"/>
<feOffset dy="-12.9511"/>
<feGaussianBlur stdDeviation="16.711"/>
<feColorMatrix type="matrix" values="0 0 0 0 0.94902 0 0 0 0 0.337255 0 0 0 0 0.694118 0 0 0 0.0646969 0"/>
<feBlend mode="normal" in2="effect4_dropShadow_1_26" result="effect5_dropShadow_1_26"/>
<feColorMatrix in="SourceAlpha" type="matrix" values="0 0 0 0 0 0 0 0 0 0 0 0 0 0 0 0 0 0 127 0" result="hardAlpha"/>
<feOffset dy="-31"/>
<feGaussianBlur stdDeviation="40"/>
<feColorMatrix type="matrix" values="0 0 0 0 0.94902 0 0 0 0 0.337255 0 0 0 0 0.694118 0 0 0 0.09 0"/>
<feBlend mode="normal" in2="effect5_dropShadow_1_26" result="effect6_dropShadow_1_26"/>
<feBlend mode="normal" in="SourceGraphic" in2="effect6_dropShadow_1_26" result="shape"/>
</filter>
<linearGradient id="paint0_linear_1_26" x1="850" y1="350" x2="151" y2="350" gradientUnits="userSpaceOnUse">
<stop stop-color="#FF720B"/>
<stop offset="1" stop-color="#FC4FA2"/>
</linearGradient>
</defs>
</svg>
