<svg xmlns="http://www.w3.org/2000/svg" viewBox="0 0 2000 750"><defs><linearGradient id="a" x1="55%" x2="45%" y1="92%" y2="8%" gradientUnits="userSpaceOnUse"><stop offset="0%" stop-color="#d741f2"/><stop offset="20%" stop-color="#ff5534"/><stop offset="45%" stop-color="#ff7b1a"/><stop offset="76%" stop-color="#f256b1"/><stop offset="100%" stop-color="#622ad3"/></linearGradient></defs><path fill="url(#a)" d="M783.2 609c32 0 33.1-23.6 32.4-28.2h6.9l-5.3 19v7.2h27.2v-45.6c0-9.2-5.4-14.3-14.3-14.3h-38.8V568h25.5c-1 10.3-11 17.1-26.6 17.1-20.4 0-29.4-11.8-29.4-30.6 0-20 10.4-31.8 28-31.8 12 0 22 6.5 23.8 16.4h28c-3.6-23.9-25.3-40-53.4-40-33 0-54.6 21.4-54.6 55.9 0 32.5 19.4 54 50.6 54Zm78.3-2H887v-27.4c0-21.5 8.4-27.3 20.9-27.3 11.4 0 15.1 4.9 15.1 18.6V607h26v-40.3c0-24-12.1-37.1-31.8-37.1-16.2 0-25.5 10.8-28.5 24.3h-6.3l4.8-14.2V531h-25.6v76Zm97.5 0h67.8v-22.6h-21v-75c0-8.3-4.7-12.6-13-12.6h-31.1v22.5H980v65h-21V607Zm74.4-38.1c0 27.1 19.3 39.6 43.2 39.6 23.5 0 43-12.4 43-39.6 0-26.8-19.5-39.3-43-39.3-23.9 0-43.2 12.5-43.2 39.3Zm25.6 0c0-11.3 7-16.6 17.6-16.6 10.2 0 17.2 5.4 17.2 16.6 0 11.4-7 17-17.2 17-10.5 0-17.6-5.6-17.6-17Zm68-37.8 13.2 75.9h49.2l5-69.6h6.4l5 69.6h48.4l13.8-75.9h-24.6l-8.9 52 1 17.4h-6l-5-69.4h-53.9l-5 69.4h-5.8l.8-17.5-9-51.9H1127ZM824.7 683.7c8.2 0 12.8-4.4 14.4-10h1.8l-1 4.3v5h6.3v-53h-6.4v22.2l1.1 4.2h-1.8c-1.6-5.5-6.2-10-14.4-10-10.5 0-17 8-17 18.7s6.5 18.6 17 18.6ZM814 665.1c0-9.2 5.3-13.1 12.6-13.1s13.1 3.9 13.1 13-5.9 13.2-13.1 13.2-12.6-4-12.6-13.1Zm40-.5c0 10.6 6 19.1 17.6 19.1 11 0 15.8-6.6 17.2-13.2h-6.3c-1.2 5-4.8 8.1-11 8.1-7.4 0-11-5.3-11.2-12.3h28.4V664c0-11-7-17.5-17.5-17.5-10.2 0-17.1 6.5-17.1 18.1Zm6.3-2.8c.5-6.5 5-10.3 10.9-10.3 6.4 0 10.8 3.8 11.2 10.3h-22Zm62.7-14.6-10.8 34h-1.8l-10.9-34h-6.4l11.6 35.8H918l11.4-35.8H923Zm62.5 32-15.7-15.7h59l-15.7 15.6 4 4 22.2-22.4-22.3-22.3-3.9 3.9 15.7 15.6h-59l15.7-15.6-3.9-3.9-22.3 22.3 22.3 22.4Zm86-6.1c0 3.7 1.5 10.6 12 10.6 8.7 0 12.5-5 14-10.6h1.7l-1 3.9v1.7a4 4 0 0 0 4.3 4.3h6.6v-5.5h-5.3v-15.2c0-9.4-5.6-15.8-16-15.8-9.3 0-14.8 5.3-15.6 13.5h6.3c.6-6 4.4-8.3 9.3-8.3 6.4 0 9.3 3 9.6 9.6l-14 1.3c-8.5.8-12 4.8-12 10.5Zm6.2-.8c0-3.5 2.3-4.7 6.7-5.1l13-1.4c0 7.2-5.1 12.7-12.9 12.7-4 0-6.8-2.1-6.8-6.2Zm37.4-20.1V683h6.4v-30.3h18.2V678c0 3.4 1.7 5 5 5h14.1v-5.5l-12.7.1v-25h11.3v-5.4h-11.3v-11l-6.4 2v9h-19.5c-3.4 0-5 1.6-5 5ZM991.4 299H1116v-72h-34.6l-90 72ZM884 459h232v-72h-107.4l100-80H981.4L884 385v74Zm107.4-320-100 80h127.2l97.4-78V67h-34.6l-90 72Zm17.2 88H884v72h94.6l90-72h-60ZM884 139h94.6l90-72H884v72Z"/></svg>