<svg width="1000" height="1000" viewBox="0 0 1000 1000" fill="none" xmlns="http://www.w3.org/2000/svg">
<rect width="1000" height="1000" fill="#352F00"/>
<g clip-path="url(#clip0_1_9)">
<path d="M418.568 600.955L352.168 577.001C324.612 567.06 310.393 536.792 320.334 509.236L332.43 475.704L282.146 457.002C263.946 450.248 254.562 429.979 261.375 411.613C268.128 393.413 288.398 384.028 306.764 390.841L389.63 421.673C407.83 428.427 417.108 448.47 410.521 466.73L392.556 516.53L442.356 534.495C460.615 541.082 470.166 561.412 463.579 579.672C457.157 597.992 436.828 607.542 418.568 600.955Z" fill="#B4DEFF"/>
<path d="M478.452 434.956L412.052 411.002C384.496 401.061 370.277 370.793 380.218 343.237L392.195 310.037C398.782 291.777 419.111 282.227 437.371 288.814C455.631 295.401 465.181 315.731 458.594 333.991L452.606 350.591L502.406 368.556C520.666 375.143 530.216 395.473 523.629 413.732C517.041 431.992 496.712 441.543 478.452 434.956Z" fill="#B4DEFF"/>
<path d="M531.51 547.897L448.51 517.955C430.25 511.368 420.7 491.038 427.287 472.779C433.874 454.519 454.204 444.968 472.464 451.555L555.463 481.497C573.723 488.085 583.274 508.414 576.686 526.674C570.099 544.934 549.77 554.484 531.51 547.897Z" fill="#B4DEFF"/>
<path d="M637.127 773.601L571.225 749.827C543.669 739.886 529.45 709.618 539.391 682.062L551.367 648.862L501.568 630.897C483.308 624.31 473.757 603.98 480.345 585.72C486.932 567.46 507.261 557.91 525.521 564.497L608.521 594.439C626.781 601.026 636.331 621.356 629.744 639.616L611.779 689.416L661.08 707.201C679.34 713.788 688.891 734.118 682.303 752.378C675.716 770.638 655.387 780.188 637.127 773.601Z" fill="#B4DEFF"/>
<path d="M750.069 720.543L667.567 690.781C649.307 684.194 639.757 663.864 646.344 645.604L664.309 595.804L614.509 577.839C596.249 571.252 586.699 550.923 593.286 532.663L611.251 482.863L561.452 464.898C543.192 458.31 533.641 437.981 540.229 419.721C546.816 401.461 567.145 391.911 585.405 398.498L651.805 422.451C679.361 432.392 693.58 462.661 683.64 490.216L671.663 523.416L704.863 535.393C732.418 545.334 746.638 575.602 736.697 603.158L724.72 636.358L774.022 654.144C792.282 660.731 801.832 681.06 795.245 699.32C788.658 717.58 768.328 727.131 750.069 720.543Z" fill="#B4DEFF"/>
</g>
<defs>
<clipPath id="clip0_1_9">
<rect width="600" height="388.235" fill="white" transform="translate(320.674 246.715) rotate(19.8369)"/>
</clipPath>
</defs>
</svg>
