<svg xmlns="http://www.w3.org/2000/svg" xmlns:xlink="http://www.w3.org/1999/xlink" viewBox="0 0 400 400"><defs><clipPath id="a"><rect width="400" height="400" style="fill:none"/></clipPath></defs><title>logo_221223</title><g style="clip-path:url(#a)"><rect x="-20" y="-20" width="440" height="440" style="fill:#fff"/><rect x="-23.9" y="96.1" width="367.8" height="307.83" style="fill:#0ba"/><polygon points="235 347.4 435 427.4 440 153.8 345 153.8 340 300 240 330 235 347.4" style="fill:#f52"/><polygon points="245 112.2 245 96.6 53.5 20 -65 20 -65 304 205 304 205 255 135 255 135 212.2 245 112.2" style="fill:#f52"/><path d="M240,300l-70-.5C90.5,300,50,255.2,50,200S90.5,100,170,100h70v20c0,60-18.6,87.4-74.3,109.7l-18.5,7.4,18.5-7.4C221.4,207.4,240,220,240,280Z" style="fill:#151155"/><path d="M245,305l-75-.5c-40.9.2-74.4-11.3-96.7-33.5C54.8,252.6,45,228.1,45,200s11.3-55.9,31.8-74.4C99,105.6,131.2,95,170,95h75v25c0,32.2-5.3,54.3-17.1,71.8a88.9,88.9,0,0,1-22.4,22.6c8.6-.2,15.4,1.7,21.1,5.5C239.3,228.5,245,247,245,280Zm-75-10.5,65,.5V280c0-28.9-4.5-45.4-14.1-51.9s-26.5-4.5-53.3,6.3L149,241.8l-3.7-9.3,18.6-7.4C217.7,203.5,235,178,235,120V105H170c-69.9,0-115,37.3-115,95,0,25.3,8.8,47.5,25.4,64,20.1,20,50.6,30.5,88.3,30.5Z" style="fill:#fff"/><path d="M314.3,170.3C258.6,192.6,240,220,240,280v60l100-40V160Z" style="fill:#151155"/><path d="M235,347.4V280c0-32.2,5.3-54.3,17.1-71.8s30.4-30.6,60.3-42.6h0l32.6-13V303.4Zm100-180-18.9,7.5C262.3,196.5,245,222,245,280v52.6l90-36Z" style="fill:#fff"/></g></svg>