<svg xmlns="http://www.w3.org/2000/svg" viewBox="0 0 250 250"><title>230501_logo</title><rect width="250" height="250" style="fill:#eac3b2"/><polygon points="124.879 25 124.879 117.376 144.903 128.909 225 82.665 124.879 25" style="fill:#fafffc"/><path d="M174.8788,203.9786l-12.99,7.5a90,90,0,0,1-90-155.8846l12.99-7.5,40,69.282-12.99,7.5a10,10,0,0,0,10,17.3206l12.99-7.5Z" style="fill:#2c2d22"/><polygon points="84.879 48.094 124.879 25 124.879 117.376 84.879 48.094" style="fill:#2c2d22"/><polygon points="134.879 134.697 174.879 203.979 225 175.041 144.903 128.909 134.879 134.697" style="fill:#2c2d22"/><polygon points="145 128.853 225 175.041 225 82.665 145 128.853" style="fill:#d46422"/></svg>