<svg xmlns="http://www.w3.org/2000/svg" xmlns:xlink="http://www.w3.org/1999/xlink" viewBox="0 0 1000 1000"><defs><clipPath id="a"><rect width="1000" height="1000" style="fill:none"/></clipPath></defs><title>logo_230703</title><g style="clip-path:url(#a)"><rect width="1000" height="1000" style="fill:#220611"/><path d="M4.8241,396.5118a52.2026,52.2026,0,0,1,9.9274-1.0305C12.43,394.9018,9.3235,395.1619,4.8241,396.5118Z" style="fill:#220611;stroke:#f1fdf7;stroke-miterlimit:2;stroke-width:5.555555820465088px"/><path d="M954.68,814.3952c-66.3308,51.7379-157.3466,79.1663-181.7462,58.3711-58.371-49.7481-54.3912-134.6514-136.6412-179.0929C604.4537,695,519.55,746.7379,477.0988,767.9637c0,0-38.4719-13.2661-46.4316-13.2661s-14.5927,3.98-22.5524,13.2661c0,0,3.98-29.1855,3.98-35.8185,78.27-15.9194,329.4284-111.6994,370.1253-148.5808,21.2258-19.2359,31.8387-51.0746,37.1452-92.863,0,0-31.1754-25.5373-56.3812-42.4517-26.904-18.0541-81.5867-64.3407,0-121.3852l-17.9092-17.9093c-62.3509,34.4921-232.8208,149.9075-281.9055,164.5,17.2459-65.0041,94.8529-204.2986,94.8529-238.79s-79.5969-74.29-157.8671-115.4154c-17.246,45.1049-83.5766,165.8267-133.9879,200.3187l6.633,19.8992s25.2057-10.613,33.1654-13.2661c35.1552,131.3348,5.97,307.7744-29.1856,434.4661-9.2863,2.6532-35.8186,11.2762-51.7379,8.623-10.6129-21.2259-10.6129-111.4356-26.5323-119.3953s-89.9053,59.5929-110.109,26.5323c-21.8891-35.8186,24.5424-119.3953,80.9235-181.7461-37.34-73.4762-117.3259-99.92-154.5728-99.2,11.63,5.6737,13.62,10.98,10.6352,19.6031-3.9431,11.391-61.0243,118.0687-133.3247,164.5-1.3267,9.2863,2.6532,17.246,6.633,25.2057,9.2864-3.98,31.8388-7.96,46.4315-9.2863,9.2863,3.98,22.5525,39.7984,7.96,62.3509s-58.371,46.4315-139.2945,78.27-151.234,33.1654-192.359,9.2863c-1.3266,70.3106,21.2258,179.0929,74.29,229.5042,47.7581-9.2863,160.52-112.7622,191.0324-124.7017s86.23-15.9194,118.0686-11.9395c-15.9194,22.5525-11.9395,61.0242,0,78.27C35.3363,911.2381,201.163,817.0485,272.8,773.27c-5.3065,23.8791-7.96,61.0242-9.2864,78.27,0,0-33.1652,9.2864-51.7379,15.9194,42.4517,51.738,53.0646,127.355,58.3711,206.9518,0,0,60.3609,33.8287,104.1392,75.617,11.94-62.3509,66.994-250.73,94.8529-295.835,0,0-25.2057,1.3267-75.617,6.6332,3.98-46.4316,67.6573-70.3107,82.25-70.3107s42.4517,15.9194,55.7178,78.27,41.1251,204.2984,116.7421,204.2984,223.35-182.8644,325.1443-239.2488C973.3763,833.8361,965.0412,820.5246,954.68,814.3952ZM471.7923,515.2438c39.7984-37.8085,130.34-79.5969,143.2743-68.6523s17.89,57.1015-45.7682,129.4533c-29.8183,33.89-78.6019,112.3221-155.2138,143.1659C418.0644,676.4274,431.9939,553.0523,471.7923,515.2438Z" style="fill:#220611;stroke:#f1fdf7;stroke-miterlimit:2;stroke-width:5.555555820465088px"/><path d="M329.0093,356.395a25.3946,25.3946,0,0,1,7.3032-1.2065,17.04,17.04,0,0,1,4.1216.4922l-2.4717,21.89a18.1261,18.1261,0,0,0-3.3989.3242Z" style="fill:#e20531"/><path d="M336.3123,366.3a5.8976,5.8976,0,0,1,1.4338.1622,29.1471,29.1471,0,0,0-5.5431.5753,14.6722,14.6722,0,0,1,4.1093-.7375m0-22.2222a36.2662,36.2662,0,0,0-10.4945,1.6745l11.1054,43-.08.0162a10.2183,10.2183,0,0,1,1.3317-.0886l4.9531-43.7788a28.17,28.17,0,0,0-6.8155-.8236Z" style="fill:#1c211e"/><path d="M530.8271,795.8145c-23.1611-22.1084-55.5834-40.3838-55.9082-40.5665l-5.2539-2.9443-.4-6.0088c-3.1606-47.41-9.4882-84.1318-30.0957-109.247l-10.0117-12.2022,14.8643-5.31c6.4424-2.3007,15.6943-5.09,22.1455-6.9756.3286-4.07.7353-8.7519,1.2432-13.5976-40.8238,24.0215-115.5083,66.2959-133.3033,69.3906L327.11,669.57l-4.042-5.8389c-6.5572-9.4707-9.6221-25.3964-6.8042-39.749-17.3448.0547-35.7456,2.7471-45.9385,6.7354-5.2368,2.0488-20.3184,13.5459-33.625,23.6885-26.3516,20.0869-56.2192,42.8544-74.9688,46.5009L156.1094,702l-4.1519-3.9443c-34.2446-32.5332-45.6362-99.4034-44.9375-136.4141l.356-18.8828,16.3325,9.4844c8.6514,5.0234,20.6177,7.6787,34.606,7.6777,18.7133-.001,40.5517-4.7012,63.1538-13.5938,15.6025-6.1386,63.083-24.82,72.5171-39.4,3.0795-4.76,1.7324-12.6021.0214-17.02-6.8559.9717-14.0034,2.4893-16.686,3.6392l-9.63,4.1269-4.6855-9.372c-2.5308-5.0611-5.9961-11.9927-4.7647-20.6133l.7188-5.0313,4.2768-2.7465c37.8047-24.2784,67.9488-80.8936,69.9756-86.2139a2.9835,2.9835,0,0,0,.0938-.3208,3.4162,3.4162,0,0,0-.0078,1.1543l4.2338-19.1773c.3448-.0068.6934-.01,1.0484-.01,24.7973,0,72.62,16.69,95.38,61.4761l3.4638,6.8154-5.1279,5.67c-34.1992,37.82-50.5757,76.5571-44.0718,88.021.1157.01.2642.0186.45.0186,5.8892-.001,17.251-6.212,25.5469-10.7461,9.769-5.34,17.4849-9.5577,24.3271-9.5577a14.9987,14.9987,0,0,1,6.772,1.5406c10.0039,5.0014,12.166,19.1928,15.416,45.9428.7188,5.9161,1.6812,13.8389,2.7285,19.4649a95.18,95.18,0,0,0,11.51-2.5567c12.043-44.9511,33.31-141.9062,17.5073-218.64-2.3149.95-4.563,1.8862-6.3384,2.6338l-11.0581,4.6557-10.1484-30.4448,6.917-4.7324c25.2241-17.2588,61.4951-82.5464,70.7109-106.65l4.4688-11.6885,11.0771,5.82,6.8858,3.6118c54.0683,28.3345,87.206,46.9068,87.206,70.6685,0,12.0049-9.8857,34.2617-26.0146,69.5811-6.6817,14.6328-13.499,29.5605-18.8447,42.6611,21.955-11.9273,53.01-31.3858,79.5429-48.0112,21.9551-13.7564,40.9151-25.6372,53.27-32.4722l7.32-4.0493,25.2852,25.2851-10.8594,7.5928c-8.8418,6.1816-19.3613,15.5547-19.27,25.1025.0723,7.4834,6.8535,16.1285,19.0947,24.3433,14.35,9.6289,31.6036,23.7388,32.3311,24.335l4.7559,3.896L798.04,421.03c-3.5888,28.2646-11.31,46.9121-24.3017,58.6846-11.1328,10.0893-46.1289,26.6176-85.3369,42.5669l1.6767.9062c29.377,15.873,41.2588,40.2109,51.7422,61.6846,7.3379,15.0312,14.2695,29.2295,26.4785,39.6338.0117.01,1.7188,1.247,7.3555,1.247,17.6025,0,51.6533-11.9668,80.085-34.1435l5.9726-4.6592,6.5195,3.8574c7.7188,4.5674,13.1817,12.8975,14.1983,14.52l6.2217,9.9365-10.2549,5.6807c-22.7119,12.58-50.8652,38.0254-78.0918,62.6338-42.9512,38.82-80.0449,72.3467-108.8428,72.3467-22.5224,0-41.02-16.3672-54.9805-48.6455-10.49-24.2539-16.47-52.4961-20.4267-71.1856l-.6455-3.041c-6.1172-28.7519-17.3555-34.81-20.1778-34.9043-3.9794.2852-18.9668,5.7217-27.9843,15.2022,15.3886-1.4121,23.1982-1.8321,23.6308-1.8545l10.0371,16.9345c-14.5478,23.5547-44.872,126.8077-51.5029,161.4356Zm54.337-236.5508q4.3931,1.3169,9.87,3.1494c5.15-2.68,11.1933-5.97,17.5088-9.41q6.45-3.5112,12.4609-6.7412C610.4443,551.3564,596.8,555.82,585.1641,559.2637Zm81.0146-153.8c-12.8623,2.53-47.4736,18.7221-65.583,35.9258-11.2852,10.7212-20.9092,42.3877-26.5615,86.4321,22.7431-14.5918,40.1-36.666,53.4765-53.6792,4.3164-5.49,8.045-10.231,11.5362-14.1992C664.8271,430.6421,667.29,412.1118,666.1787,405.4634Z" style="fill:#e20531"/><path d="M552.9438,212.2222c43.7037,22.963,88.1481,45.1853,88.1481,64.4445S597.7585,373.7037,588.129,410c27.4073-8.1481,122.5926-72.5925,157.4073-91.8519l10,10c-45.5555,31.8519-15.0224,57.6969,0,67.7778,14.0742,9.4445,31.4816,23.7037,31.4816,23.7037-2.963,23.3334-8.8889,41.1112-20.7408,51.8518-22.7239,20.5936-162.963,74.0741-206.6666,82.9631,0,3.7036-2.2223,20-2.2223,20,4.4445-5.1853,8.1481-7.4075,12.5926-7.4075s25.926,7.4075,25.926,7.4075c23.7037-11.8519,71.1111-40.7408,88.8889-41.4815,45.9259,24.8148,43.7036,72.2222,76.2962,100,3.1141,2.6541,8.1707,3.9013,14.5629,3.9013,21.5728,0,58.3473-14.2084,86.9186-36.494,5.7855,3.4225,10.4395,10.8553,10.4395,10.8553-56.8391,31.4833-139.3283,133.5892-181.5507,133.5892s-57.7776-79.2593-65.1851-114.074-22.963-43.7038-31.1111-43.7038S551.4622,600.37,549.24,626.2963c28.1482-2.963,42.2222-3.7037,42.2222-3.7037-15.5554,25.1852-46.2962,130.37-52.9629,165.1852-24.4444-23.3334-58.1481-42.2222-58.1481-42.2222-2.963-44.4445-8.8889-86.6667-32.5926-115.5556,10.37-3.7037,28.8889-8.8889,28.8889-8.8889.7407-9.63,2.2222-30.37,5.1852-43.7037-40,24.4445-132.5926,77.0371-149.63,80-6.6667-9.63-8.8889-31.1111,0-43.7037a127.2931,127.2931,0,0,0-15.4051-.8334c-17.0486,0-37.743,2.5-50.5208,7.5-17.037,6.6667-80,64.4445-106.6667,69.63-29.63-28.1481-42.2222-88.8889-41.4814-128.1481,10.384,6.0294,24.0956,9.18,40.1856,9.18,19.4909,0,42.47-4.6269,67.2217-14.3654,45.1853-17.7778,69.63-31.1112,77.7778-43.7037s.7408-32.5926-4.4444-34.8149c-8.1481.7408-20.7407,2.963-25.9259,5.1852-2.2222-4.4444-4.4445-8.8888-3.7037-14.0741,40.37-25.9259,72.2427-85.4914,74.4445-91.8517,1.6665-4.815.5554-7.7779-5.9385-10.9458q.4113-.008.8348-.008c21.1361,0,64.8991,14.9122,85.474,55.3982-31.4816,34.8148-57.4074,81.4814-45.1852,101.4814,2.2446,3.6731,5.6757,5.1214,9.8062,5.1214,15.4579,0,40.6784-20.3045,49.8725-20.3034a4.0065,4.0065,0,0,1,1.8028.3673c8.8889,4.4444,8.8889,54.8147,14.8148,66.6666a22.9958,22.9958,0,0,0,3.7546.28c8.8426,0,20.627-3.8067,25.1343-5.0946,19.63-70.7406,35.9259-169.2592,16.2963-242.5925-4.4444,1.4814-18.5185,7.4074-18.5185,7.4074l-3.7037-11.1111c28.1481-19.2593,65.1851-86.6666,74.8148-111.8519m7.7778,335c42.7777-17.2222,70.017-61.0161,86.6666-79.9394,35.545-40.399,32.7778-66.1717,25.5556-72.2828a6.0393,6.0393,0,0,0-3.8761-.99c-14.1573.0016-56.354,20.5419-76.1239,39.3233-22.2222,21.1112-30,90-32.2222,113.8889M541.1251,180.9094l-8.938,23.3764c-4.0662,10.6347-14.7379,32.17-28.5594,54.3209C489.031,282,475.1633,299.1772,465.58,305.734l-13.8338,9.4653,5.3005,15.902,3.7037,11.1112,7.5883,22.7652,15.6134-6.5736c8.7464,59.6036-2.852,129.15-13.4168,174.8981-2.8726-21.9441-6.43-37.7518-20.2464-44.66a26.0041,26.0041,0,0,0-11.7373-2.7135c-9.6834-.001-18.4993,4.8181-29.6606,10.92-2.3565,1.2883-5.8341,3.1893-9.3254,4.9459a98.7527,98.7527,0,0,1,7.2886-17.5406c7.79-15.1279,20.0673-32.44,33.683-47.4973l10.2554-11.3413-6.9273-13.6311c-11.119-21.8793-29.0027-39.9761-51.7175-52.3339-17.5159-9.5294-37.5411-15.2186-53.5672-15.2188q-.6429,0-1.267.0123l-9.3019,42.148c-4.0106-2.739-7.2625-10.6624-5.3274-16.2528.0545-.1577.1225-.3579.2212-.593-2.6469,6.3126-31.4483,59.0351-65.6739,81.0149l-8.5531,5.4927-1.4377,10.063c-1.7225,12.0571,3.003,21.5082,5.8265,27.155l9.37,18.7412,19.1876-8.2232c.1459-.0555.3169-.1146.5116-.1769-2.3576,2.1283-6.7277,5.431-14.6511,9.852-11.5206,6.4282-27.9039,13.7954-50.0861,22.5229-21.3209,8.3885-41.7524,12.8224-59.0855,12.8224-12.0318,0-22.0692-2.1355-29.0271-6.1756L96.6233,523.6679l-.7125,37.7648c-.44,23.3267,3.28,50.5815,10.206,74.7759,6.0314,21.069,17.5528,50.299,38.1881,69.9025L152.6089,714l11.2431-2.1862c19.7716-3.8445,45.4563-22.5558,79.5833-48.57,11.1559-8.5038,26.4207-20.14,31.0251-22.2123,6.6533-2.5832,17.8719-4.5895,29.704-5.4624.106,13.0822,3.745,25.7881,9.7676,34.4875l8.0849,11.6783,13.9938-2.4338c4.9114-.8541,15.1314-2.6316,73.0664-34.3452,5.0794-2.78,10.1917-5.6094,15.2756-8.4484l6.2265,7.5886c18.732,22.83,24.5806,57.6617,27.599,102.9378l.8013,12.0183,10.5074,5.8888c.3027.17,31.6313,17.876,53.6686,38.9114l37.17-11.8952c6.3395-33.1063,31.3978-117.6378,45.7577-149.3269,4.0473,18.99,10.0487,45.5881,20.2006,69.0612,6.6978,15.4865,14.1994,27.3794,22.9335,36.3584,12.0829,12.4215,26.6911,18.9872,42.2454,18.9872,33.0747,0,71.6389-34.8553,116.2926-75.2143,26.76-24.1868,54.4318-49.197,76.0257-61.1578l20.51-11.3606-12.443-19.872c-1.7646-2.8183-8.2749-12.4591-17.96-18.1882L860.85,573.5317l-11.9441,9.3163c-25.1774,19.6383-57.6262,31.794-73.2513,31.794-.7661,0-1.3643-.0328-1.8118-.0736-9.4532-8.7934-15.3117-20.7935-22.0376-34.5705-8.6131-17.6423-18.9279-38.77-39.7172-55.5006,29.1852-12.4307,57.6367-26.15,69.1116-36.55,19.7954-17.9394,25.3827-45.9844,27.8633-65.5187l1.549-12.1983-9.5123-7.792c-.7442-.61-18.397-15.0448-33.1808-24.9655-11.1689-7.4948-14.156-13.2353-14.175-15.2235-.0189-1.97,2.9928-7.8257,14.526-15.89l21.7194-15.186-18.74-18.7395-10-10-11.8305-11.8305-14.64,8.0987c-12.6208,6.9818-31.7006,18.937-53.7932,32.78-14.8108,9.28-32.9694,20.6583-49.9165,30.8519,1.7527-3.8654,3.5082-7.71,5.2266-11.4727,17.7536-38.8771,27.0178-59.8331,27.0178-74.1954,0-21.2689-18.6559-36.5833-34.9088-47.5488-16.1643-10.9058-36.6062-21.6188-58.2484-32.9607q-3.435-1.8-6.8769-3.6071l-22.1549-11.6407Zm48.48,320.0816c5.6111-28.4539,12.6922-45.892,18.6444-51.5465,7.2244-6.8631,19.7547-15.1938,33.5185-22.2845,3.4266-1.7653,6.5958-3.2826,9.4757-4.5752-3.4865,7.6114-9.7353,17.74-20.539,30.0188-3.6939,4.1983-7.693,9.2845-11.927,14.6694-8.1259,10.3345-17.7922,22.6282-29.1726,33.718Z" style="fill:#1c211e"/></g></svg>