<svg width="1000" height="1000" viewBox="0 0 1000 1000" fill="none" xmlns="http://www.w3.org/2000/svg">
<rect width="1000" height="1000" fill="#443653"/>
<path d="M242.464 421.863C250.103 411.781 314.689 410.095 353.251 432.671C368.264 441.463 375.869 452.747 372.889 463.22C366.973 484.011 301.219 512.883 197.552 503.322C85.1286 492.944 65.8081 476.098 67.5966 471.253C69.9633 464.864 93.6575 456.264 229.024 513.075C312.713 548.203 389.538 589.697 394.031 600.99C408.935 601.048 436.419 587.351 444.655 570.338C419.759 589.717 376.575 574.064 232.884 509.436C84.6273 442.767 41.0305 433.525 31.3618 450.04C25.3222 460.351 41.5264 494.272 198.437 508.339C336.117 520.679 387.759 494.798 392.147 487.307C403.476 467.956 391.073 441.656 376.864 430.903C339.311 402.519 310.691 408.264 271.422 402.091C252.007 399.044 239.868 393.672 223.415 380.222C222.215 396.499 242.464 421.863 242.464 421.863Z" fill="#E2D2F5"/>
<path d="M566.321 358.556C575.908 371.656 579.098 398.27 558.922 414.496C538.745 430.721 500.465 445.691 550.909 472.821C586.456 491.942 597.092 489.263 630.077 520.523C641.998 531.833 650.833 551.819 663.752 548.001C656.213 558.377 645.237 560.352 637.321 559.351C635.188 551.538 626.761 541.766 611.944 536.159C581.771 524.753 531.938 514.923 511.019 509.44C495.911 505.474 493.638 506.079 499.593 508.773C541.667 527.76 574.248 547.729 627.557 584.608C634.075 589.107 657.05 598.963 668.66 594.934C661.996 604.587 647.845 610.453 639.308 611.074C635.101 605.013 580.515 588.245 566.996 583.903C553.476 579.56 547.308 581.467 566.716 593.464C586.123 605.46 587.562 616.694 584.501 620.928C579.567 627.762 566.836 630.423 548.53 623.561C542.101 621.15 540.967 622.573 546.734 628.382C556.125 637.818 562.559 654.102 566.841 660.025C571.123 665.947 577.781 669.082 587.379 666.839C578.339 679.278 560.27 692.471 520.934 698.274C481.598 704.076 474.259 716.56 499.747 733.676C577.29 785.773 622.298 813.868 646.503 798.531C633.964 817.564 615.71 824.561 601.682 826.397C597.294 808.266 549.739 772.492 502.016 747.22C487.712 739.633 472.74 734.162 461.906 723.063C443.997 704.726 445.799 689.335 457.387 685.974C468.975 682.613 488.102 701.512 525.014 690.796C561.911 680.071 559.245 661.756 549.222 642.704C542.722 630.381 534.624 625.504 525.085 622.323C515.546 619.142 497.401 614.826 484.506 620.556C477.483 609.048 472.824 593.188 473.657 581.389C480.824 594.514 504.107 607.275 526.022 613.139C547.938 619.003 573.785 624.123 576.246 615.087C579.082 604.695 568.206 601.428 558.396 597.12C548.928 592.959 542.883 597.371 531.035 586.222C516.251 572.319 528.206 564.22 551.417 573.346C574.629 582.471 632.63 602.992 634.565 599.466C636.5 595.939 495.06 502.094 456.956 498.613C446.172 479.927 444.768 462.796 451.961 447.815C456.432 474.286 463.998 492.843 603.573 526.838C627.108 532.562 631.35 529.328 611.684 513.894C576.554 486.326 538.834 482.433 517.956 458.746C497.086 435.043 509.475 420.865 514.241 411.201C524.883 417.039 569.297 394.648 566.304 358.587L566.321 358.556Z" fill="#E2D2F5"/>
<path d="M741.444 552.452C741.602 574.942 750.387 590.884 762.182 600.286C771.972 588.754 834.563 608.169 832.171 621.14C829.779 634.111 760.298 644.591 750.791 639.469C741.283 634.346 733.822 628.297 731.738 623.607C732.191 636.065 735.84 655.853 745.982 666.417C759.923 670.869 776.608 685.444 783.011 693.477C789.415 701.511 794.576 710.909 774.751 707.879C754.925 704.849 744.423 706.321 736.82 711.906C729.216 717.491 726.54 733.865 704.895 744.636C683.273 755.4 650.207 764.608 624.858 750.964C599.509 737.32 593.545 720.871 590.505 707.529C586.912 720.867 591.701 749.928 602.213 761.692C644.139 765.409 914.699 894.227 910.183 946.297C936.815 943.769 955.033 936.653 968.802 917.608C940.191 931.312 911.189 913.726 887.147 896.715C863.104 879.704 699.691 785.64 676.436 775.671C653.181 765.703 661.315 762.944 681.296 760.962C701.261 758.972 718.914 753.707 737.642 759.719C730.461 743.628 728.469 729.316 746.896 724.472C765.339 719.637 807.392 725.962 821.484 704.514C801.851 702.088 763.93 670.985 753.582 653.195C764.792 655.145 772.655 647.163 794.692 643.24C816.729 639.316 838.817 647.632 848.604 642.713C858.391 637.795 863.55 619.691 844.279 604.231C825.008 588.771 780.07 599.206 741.398 552.427L741.444 552.452Z" fill="#E2D2F5"/>
</svg>
